<svg width="152" height="42" viewBox="0 0 152 42" fill="none" xmlns="http://www.w3.org/2000/svg">
<path d="M26.17 41.75V34.325C26.17 31.835 23.575 30.59 18.385 30.59C14.755 30.59 9.895 31.175 3.805 32.345L2.815 27.485C9.055 26.315 14.11 25.73 17.98 25.73C27.04 25.73 31.57 28.595 31.57 34.325V41.75H26.17ZM31.39 0.799998V24.29H25.99V14.705H20.545V21.635H8.17C5.74 21.635 3.85 20.945 2.5 19.565C1.18 18.185 0.595 16.295 0.745 13.895C0.985 11.555 1.405 9.245 2.005 6.965H0.205V2.015H20.545V9.305H25.99V0.799998H31.39ZM6.145 14.255C6.085 15.185 6.19 15.83 6.46 16.19C6.76 16.52 7.33 16.685 8.17 16.685H15.145V6.965H7.54C6.88 9.215 6.415 11.645 6.145 14.255ZM64.413 26.27V10.295C64.413 7.805 61.728 6.56 56.358 6.56C52.578 6.56 47.658 7.145 41.598 8.315L40.608 3.455C46.908 2.285 52.023 1.7 55.953 1.7C65.193 1.7 69.813 4.565 69.813 10.295V26.27H64.413ZM73.413 37.295H36.873V32.345H48.123V16.415H53.523V32.345H73.413V37.295ZM80.1338 29.015H100.789C101.329 29.015 101.734 28.94 102.004 28.79C102.274 28.64 102.409 28.46 102.409 28.25C102.409 27.86 102.124 27.575 101.554 27.395C100.774 27.125 99.7088 26.915 98.3588 26.765C97.0388 26.615 95.5538 26.54 93.9038 26.54C89.8538 26.54 85.8938 26.99 82.0238 27.89L80.7638 23.03C84.8138 22.1 89.1038 21.635 93.6338 21.635C95.6738 21.635 97.5338 21.74 99.2138 21.95C100.894 22.13 102.244 22.385 103.264 22.715C104.764 23.225 105.889 23.975 106.639 24.965C107.419 25.955 107.809 27.035 107.809 28.205C107.809 29.195 107.524 30.14 106.954 31.04C106.414 31.91 105.604 32.615 104.524 33.155C103.474 33.695 102.229 33.965 100.789 33.965H87.5588C87.2888 34.235 87.1538 34.52 87.1538 34.82C87.1538 35.33 87.5288 35.75 88.2788 36.08C89.3288 36.56 91.0238 36.8 93.3638 36.8C95.7938 36.8 98.4338 36.545 101.284 36.035C104.134 35.525 106.654 34.835 108.844 33.965L110.824 38.555C108.454 39.515 105.679 40.28 102.499 40.85C99.3488 41.45 96.3488 41.75 93.4988 41.75C90.2588 41.75 87.7688 41.36 86.0288 40.58C84.5888 39.92 83.5088 39.08 82.7888 38.06C82.0988 37.07 81.7538 36.02 81.7538 34.91C81.7538 34.7 81.7838 34.385 81.8438 33.965H80.1338V29.015ZM107.899 0.799998V10.07H112.219V15.47H107.899V21.14H102.499V0.799998H107.899ZM77.1638 1.97H91.1588C92.9888 1.97 94.5188 2.51 95.7488 3.59C97.0088 4.67 97.6388 6.215 97.6388 8.225C97.3088 11.885 95.4638 14.75 92.1038 16.82C88.7438 18.89 83.4488 20.285 76.2188 21.005L75.6788 16.055C79.6688 15.665 82.8488 15.125 85.2188 14.435C87.5888 13.715 89.2988 12.845 90.3488 11.825C91.4288 10.775 92.0588 9.515 92.2388 8.045C92.2088 7.595 92.1188 7.295 91.9688 7.145C91.8488 6.995 91.5788 6.92 91.1588 6.92H77.1638V1.97ZM151.115 0.799998V40.04H145.715V21.32H143.015V37.79H137.615V1.25H143.015V15.92H145.715V0.799998H151.115ZM116.6 15.875H127.94C128.87 15.875 129.545 15.545 129.965 14.885C130.385 14.195 130.595 13.34 130.595 12.32C130.595 11.51 130.475 10.715 130.235 9.935C130.025 9.155 129.74 8.555 129.38 8.135C128.54 7.145 127.43 6.65 126.05 6.65C124.28 6.65 122.105 7.46 119.525 9.08L116.645 4.94C119.975 2.81 123.185 1.745 126.275 1.745C129.305 1.745 131.72 2.795 133.52 4.895C134.3 5.825 134.9 6.935 135.32 8.225C135.77 9.485 135.995 10.79 135.995 12.14C135.995 13.67 135.695 15.095 135.095 16.415C134.525 17.735 133.625 18.8 132.395 19.61C131.195 20.42 129.71 20.825 127.94 20.825H123.665C122.645 22.985 122.135 24.755 122.135 26.135C122.135 27.335 122.48 28.34 123.17 29.15C123.86 29.93 124.955 30.32 126.455 30.32C127.895 30.32 129.545 29.99 131.405 29.33C133.265 28.64 135.08 27.74 136.85 26.63V32.39C135.17 33.26 133.4 33.95 131.54 34.46C129.71 34.97 127.955 35.225 126.275 35.225C123.155 35.225 120.77 34.28 119.12 32.39C117.53 30.59 116.735 28.49 116.735 26.09C116.735 24.47 117.095 22.715 117.815 20.825H116.6V15.875Z" fill="#1A1A1A"/>
<path d="M26.17 41.75V34.325C26.17 31.835 23.575 30.59 18.385 30.59C14.755 30.59 9.895 31.175 3.805 32.345L2.815 27.485C9.055 26.315 14.11 25.73 17.98 25.73C27.04 25.73 31.57 28.595 31.57 34.325V41.75H26.17ZM31.39 0.799998V24.29H25.99V14.705H20.545V21.635H8.17C5.74 21.635 3.85 20.945 2.5 19.565C1.18 18.185 0.595 16.295 0.745 13.895C0.985 11.555 1.405 9.245 2.005 6.965H0.205V2.015H20.545V9.305H25.99V0.799998H31.39ZM6.145 14.255C6.085 15.185 6.19 15.83 6.46 16.19C6.76 16.52 7.33 16.685 8.17 16.685H15.145V6.965H7.54C6.88 9.215 6.415 11.645 6.145 14.255ZM64.413 26.27V10.295C64.413 7.805 61.728 6.56 56.358 6.56C52.578 6.56 47.658 7.145 41.598 8.315L40.608 3.455C46.908 2.285 52.023 1.7 55.953 1.7C65.193 1.7 69.813 4.565 69.813 10.295V26.27H64.413ZM73.413 37.295H36.873V32.345H48.123V16.415H53.523V32.345H73.413V37.295ZM80.1338 29.015H100.789C101.329 29.015 101.734 28.94 102.004 28.79C102.274 28.64 102.409 28.46 102.409 28.25C102.409 27.86 102.124 27.575 101.554 27.395C100.774 27.125 99.7088 26.915 98.3588 26.765C97.0388 26.615 95.5538 26.54 93.9038 26.54C89.8538 26.54 85.8938 26.99 82.0238 27.89L80.7638 23.03C84.8138 22.1 89.1038 21.635 93.6338 21.635C95.6738 21.635 97.5338 21.74 99.2138 21.95C100.894 22.13 102.244 22.385 103.264 22.715C104.764 23.225 105.889 23.975 106.639 24.965C107.419 25.955 107.809 27.035 107.809 28.205C107.809 29.195 107.524 30.14 106.954 31.04C106.414 31.91 105.604 32.615 104.524 33.155C103.474 33.695 102.229 33.965 100.789 33.965H87.5588C87.2888 34.235 87.1538 34.52 87.1538 34.82C87.1538 35.33 87.5288 35.75 88.2788 36.08C89.3288 36.56 91.0238 36.8 93.3638 36.8C95.7938 36.8 98.4338 36.545 101.284 36.035C104.134 35.525 106.654 34.835 108.844 33.965L110.824 38.555C108.454 39.515 105.679 40.28 102.499 40.85C99.3488 41.45 96.3488 41.75 93.4988 41.75C90.2588 41.75 87.7688 41.36 86.0288 40.58C84.5888 39.92 83.5088 39.08 82.7888 38.06C82.0988 37.07 81.7538 36.02 81.7538 34.91C81.7538 34.7 81.7838 34.385 81.8438 33.965H80.1338V29.015ZM107.899 0.799998V10.07H112.219V15.47H107.899V21.14H102.499V0.799998H107.899ZM77.1638 1.97H91.1588C92.9888 1.97 94.5188 2.51 95.7488 3.59C97.0088 4.67 97.6388 6.215 97.6388 8.225C97.3088 11.885 95.4638 14.75 92.1038 16.82C88.7438 18.89 83.4488 20.285 76.2188 21.005L75.6788 16.055C79.6688 15.665 82.8488 15.125 85.2188 14.435C87.5888 13.715 89.2988 12.845 90.3488 11.825C91.4288 10.775 92.0588 9.515 92.2388 8.045C92.2088 7.595 92.1188 7.295 91.9688 7.145C91.8488 6.995 91.5788 6.92 91.1588 6.92H77.1638V1.97ZM151.115 0.799998V40.04H145.715V21.32H143.015V37.79H137.615V1.25H143.015V15.92H145.715V0.799998H151.115ZM116.6 15.875H127.94C128.87 15.875 129.545 15.545 129.965 14.885C130.385 14.195 130.595 13.34 130.595 12.32C130.595 11.51 130.475 10.715 130.235 9.935C130.025 9.155 129.74 8.555 129.38 8.135C128.54 7.145 127.43 6.65 126.05 6.65C124.28 6.65 122.105 7.46 119.525 9.08L116.645 4.94C119.975 2.81 123.185 1.745 126.275 1.745C129.305 1.745 131.72 2.795 133.52 4.895C134.3 5.825 134.9 6.935 135.32 8.225C135.77 9.485 135.995 10.79 135.995 12.14C135.995 13.67 135.695 15.095 135.095 16.415C134.525 17.735 133.625 18.8 132.395 19.61C131.195 20.42 129.71 20.825 127.94 20.825H123.665C122.645 22.985 122.135 24.755 122.135 26.135C122.135 27.335 122.48 28.34 123.17 29.15C123.86 29.93 124.955 30.32 126.455 30.32C127.895 30.32 129.545 29.99 131.405 29.33C133.265 28.64 135.08 27.74 136.85 26.63V32.39C135.17 33.26 133.4 33.95 131.54 34.46C129.71 34.97 127.955 35.225 126.275 35.225C123.155 35.225 120.77 34.28 119.12 32.39C117.53 30.59 116.735 28.49 116.735 26.09C116.735 24.47 117.095 22.715 117.815 20.825H116.6V15.875Z" fill="black" fill-opacity="0.2"/>
</svg>
