<svg width="35" height="34" viewBox="0 0 35 34" fill="none" xmlns="http://www.w3.org/2000/svg">
<path d="M20.0465 2.45514L23.0632 8.4887C23.4698 9.32313 24.5609 10.1148 25.4809 10.2859L30.9369 11.1846C34.4243 11.7622 35.2374 14.2869 32.7341 16.8116L28.4763 21.0693C27.7703 21.7754 27.3638 23.1661 27.5992 24.1717L28.8187 29.435C29.7815 33.5857 27.5563 35.2118 23.8977 33.0295L18.7841 29.9913C17.8641 29.435 16.3237 29.435 15.4036 29.9913L10.2901 33.0295C6.63141 35.1904 4.4063 33.5857 5.3691 29.435L6.58866 24.1717C6.82402 23.1875 6.41749 21.7968 5.71144 21.0693L1.45373 16.8116C-1.04955 14.3083 -0.236526 11.7836 3.25096 11.1846L8.70681 10.2859C9.62682 10.1362 10.718 9.32313 11.1245 8.4887L14.1413 2.45514C15.746 -0.818381 18.3991 -0.818381 20.0465 2.45514Z" fill="#33A567"/>
</svg>
