<svg width="12" height="12" viewBox="0 0 12 12" fill="none" xmlns="http://www.w3.org/2000/svg">
<path d="M11 4.34505C11 4.94005 10.905 5.49005 10.74 6.00005H1.26C1.095 5.49005 1 4.94005 1 4.34505C1 2.80005 2.245 1.55005 3.78 1.55005C4.685 1.55005 5.495 1.99005 6 2.66505C6.505 1.99005 7.315 1.55005 8.22 1.55005C9.755 1.55005 11 2.80005 11 4.34505Z" fill="white"/>
<path d="M10.74 6C9.94999 8.5 7.51499 9.995 6.30999 10.405C6.13999 10.465 5.85999 10.465 5.68999 10.405C4.48499 9.995 2.04999 8.5 1.25999 6H10.74Z" fill="white"/>
</svg>
