<svg width="119" height="142" viewBox="0 0 119 142" fill="none" xmlns="http://www.w3.org/2000/svg">
<path d="M88.5 137C95.5 119.5 99.5 96.5 78.5 81.5" stroke="#1A1A1A" stroke-width="10" stroke-linecap="round"/>
<path d="M88.5 137C95.5 119.5 99.5 96.5 78.5 81.5" stroke="black" stroke-opacity="0.2" stroke-width="10" stroke-linecap="round"/>
<path d="M0.90106 98.4888C8.67722 75.3726 33.7204 62.9372 56.8365 70.7133L77.6883 77.7278C78.1279 77.8757 78.3644 78.3519 78.2165 78.7915C70.4403 101.908 45.3972 114.343 22.2811 106.567L1.42927 99.5525C0.989667 99.4046 0.753178 98.9284 0.90106 98.4888Z" fill="#1A1A1A"/>
<path d="M0.90106 98.4888C8.67722 75.3726 33.7204 62.9372 56.8365 70.7133L77.6883 77.7278C78.1279 77.8757 78.3644 78.3519 78.2165 78.7915C70.4403 101.908 45.3972 114.343 22.2811 106.567L1.42927 99.5525C0.989667 99.4046 0.753178 98.9284 0.90106 98.4888Z" fill="black" fill-opacity="0.2"/>
<path d="M0.90106 98.4888C8.67722 75.3726 33.7204 62.9372 56.8365 70.7133L77.6883 77.7278C78.1279 77.8757 78.3644 78.3519 78.2165 78.7915C70.4403 101.908 45.3972 114.343 22.2811 106.567L1.42927 99.5525C0.989667 99.4046 0.753178 98.9284 0.90106 98.4888Z" stroke="#1A1A1A"/>
<path d="M0.90106 98.4888C8.67722 75.3726 33.7204 62.9372 56.8365 70.7133L77.6883 77.7278C78.1279 77.8757 78.3644 78.3519 78.2165 78.7915C70.4403 101.908 45.3972 114.343 22.2811 106.567L1.42927 99.5525C0.989667 99.4046 0.753178 98.9284 0.90106 98.4888Z" stroke="black" stroke-opacity="0.2"/>
<path d="M83.0205 1.22467C102.121 16.3896 105.312 44.1676 90.1473 63.2686L76.4678 80.4986C76.1794 80.8619 75.6512 80.9225 75.2879 80.6341C56.1869 65.4692 52.9961 37.6912 68.1611 18.5902L81.8406 1.36021C82.1289 0.996958 82.6572 0.936276 83.0205 1.22467Z" fill="#1A1A1A"/>
<path d="M83.0205 1.22467C102.121 16.3896 105.312 44.1676 90.1473 63.2686L76.4678 80.4986C76.1794 80.8619 75.6512 80.9225 75.2879 80.6341C56.1869 65.4692 52.9961 37.6912 68.1611 18.5902L81.8406 1.36021C82.1289 0.996958 82.6572 0.936276 83.0205 1.22467Z" fill="black" fill-opacity="0.2"/>
<path d="M83.0205 1.22467C102.121 16.3896 105.312 44.1676 90.1473 63.2686L76.4678 80.4986C76.1794 80.8619 75.6512 80.9225 75.2879 80.6341C56.1869 65.4692 52.9961 37.6912 68.1611 18.5902L81.8406 1.36021C82.1289 0.996958 82.6572 0.936276 83.0205 1.22467Z" stroke="#1A1A1A"/>
<path d="M83.0205 1.22467C102.121 16.3896 105.312 44.1676 90.1473 63.2686L76.4678 80.4986C76.1794 80.8619 75.6512 80.9225 75.2879 80.6341C56.1869 65.4692 52.9961 37.6912 68.1611 18.5902L81.8406 1.36021C82.1289 0.996958 82.6572 0.936276 83.0205 1.22467Z" stroke="black" stroke-opacity="0.2"/>
</svg>
