<svg width="40" height="40" viewBox="0 0 40 40" fill="none" xmlns="http://www.w3.org/2000/svg">
<path d="M22.8833 5.8499L25.8166 11.7166C26.2166 12.5332 27.2833 13.3166 28.1833 13.4666L33.5 14.3499C36.9 14.9166 37.7 17.3832 35.25 19.8166L31.1166 23.9499C30.4166 24.6499 30.0333 25.9999 30.25 26.9666L31.4333 32.0832C32.3666 36.1332 30.2166 37.6999 26.6333 35.5832L21.65 32.6332C20.75 32.0999 19.2666 32.0999 18.35 32.6332L13.3666 35.5832C9.79997 37.6999 7.6333 36.1166 8.56664 32.0832L9.74997 26.9666C9.96664 25.9999 9.5833 24.6499 8.8833 23.9499L4.74997 19.8166C2.31664 17.3832 3.09997 14.9166 6.49997 14.3499L11.8166 13.4666C12.7 13.3166 13.7666 12.5332 14.1666 11.7166L17.1 5.8499C18.7 2.66657 21.3 2.66657 22.8833 5.8499Z" stroke="#251605" stroke-width="1.5" stroke-linecap="round" stroke-linejoin="round"/>
</svg>
